<svg xmlns="http://www.w3.org/2000/svg"  viewBox="0 0 32 32" width="128px" height="128px"><path d="M30.033,10.634c-0.157-1.21-1.16-2.182-2.385-2.311c-4.308-0.45-8.673-0.653-12.984-0.601	c-0.147-0.703-0.288-1.405-0.42-2.104c-0.253-1.352-1.466-2.305-2.813-2.191C9.263,3.59,7.063,3.875,4.892,4.272	c-1.05,0.192-1.886,0.986-2.13,2.021c-1.516,6.415-1.517,12.92,0,19.337c0.245,1.037,1.083,1.831,2.133,2.022	C8.579,28.328,12.29,28.665,16,28.665c3.711,0,7.422-0.337,11.106-1.013c1.051-0.193,1.888-0.987,2.132-2.022	C30.413,20.657,30.682,15.611,30.033,10.634z"/></svg>