<svg xmlns="http://www.w3.org/2000/svg"  viewBox="0 0 100 100" width="100px" height="100px" baseProfile="basic"><path fill="#f09215" d="M17.962,16.953c-3.689,1.357-5.042,5.238-6.155,8.806c2.292,0.31,4.583,0.62,6.875,0.93	c0.465-0.773,0.93-1.545,1.394-2.318c2.394-1.387,2.124-4.6,0-6.044c-6.615-4.497-9.6,5.57-9.189,10.319	c0.353,4.076,5.371,4.577,6.875,0.93c0.427-1.034,0.545-1.824,0.548-2.955c-0.058-0.607-0.112-1.214-0.164-1.821	c-0.255-0.687-0.03-0.843,0.677-0.468c1.805-1.4,9.025-0.277,11.296-0.17c0-2.333,0-4.667,0-7c-4.931,0.625-9.801,1.461-14.64,2.6	c0.62,2.25,1.241,4.5,1.861,6.75c5.298-1.646,10.588-2.426,16.132-2.358c4.538,0.056,4.463-6.72,0-7	c-5.321-0.334-10.63-0.863-15.967-0.844c-4.528,0.016-4.48,6.772,0,7c3.67,0.187,7.359,0.529,11.032,0.262	c1.83-0.133,4.507-0.875,6.207,0.107c1.388,0.803,2.56,3.025,3.63,4.256c1.414-1.832,2.828-3.665,4.241-5.497	c-6.863-4.048-14.004-1.691-21.471-1.987c-4.505-0.179-4.497,6.822,0,7c5.842,0.232,12.596-2.12,17.938,1.031	c3.553,2.096,6.781-2.577,4.241-5.497c-3.085-3.547-5.208-6.518-10.339-6.714c-5.136-0.196-10.296,0.302-15.48,0.039	c0,2.333,0,4.667,0,7c5.336-0.019,10.646,0.51,15.967,0.844c0-2.333,0-4.667,0-7c-6.15-0.075-12.119,0.783-17.993,2.608	c-4.301,1.336-2.535,7.785,1.861,6.75c4.226-0.995,8.47-1.804,12.779-2.35c4.363-0.553,4.626-6.783,0-7	c-4.689-0.22-11.43-1.092-15.746,1.24c-4.392,2.373-1.904,5.78-3.362,9.314c2.292,0.31,4.583,0.62,6.875,0.93	c-0.076-0.88-0.672-4.128,0.582-4.446c-0.899-0.118-1.798-0.235-2.697-0.353c0.257,0.175,0.514,0.35,0.772,0.525	c0-2.015,0-4.03,0-6.044c-3.227,1.87-4.809,4.654-4.861,8.363c-0.057,4.024,5.715,4.649,6.875,0.93	c0.348-1.115,2.458-4.355,1.266-3.917C24.016,22.16,22.204,15.393,17.962,16.953L17.962,16.953z"/><path fill="#f09215" d="M17.779,17.212c-2.775,0.142-5.189,1.662-6.213,4.329c-0.844,2.198-0.195,4.341,0.014,6.585	c2.174-0.589,4.348-1.178,6.522-1.767c-0.419-0.666-0.514-1.408-0.422-2.193c0.029-0.248,0.679-0.205-0.241,0.315	c0.527-0.298,1.39-0.299,1.965-0.382c3-0.434,3.348-5.101,0.836-6.397c-4.244-2.189-9.861-0.381-9.847,4.919	c0.009,3.571-0.52,7.226,0.099,10.767c0.774,4.429,7.521,2.552,6.75-1.861c0.123,0.703-0.018-0.644-0.023-0.824	c-0.014-0.519-0.005-1.039,0.005-1.558c0.022-1.216,0.085-2.431,0.133-3.646c0.029-0.731,0.304-1.924,0.052-2.604	c-0.324-0.873-0.439,0.17-0.896,0.776c-0.01,0.013,0.185,0.07,0.194,0.075c0.279-2.132,0.557-4.265,0.836-6.397	c-2.961,0.429-5.719,1.759-6.559,4.864c-0.678,2.506-0.313,5.474,1.073,7.679c1.709,2.718,6.864,1.893,6.522-1.767	c-0.088-0.937-0.266-1.859-0.378-2.792c-0.045-0.374-0.111-0.756-0.096-1.135c0.024-0.592,0.049-0.006-0.328,0.013	C22.261,23.982,22.289,16.981,17.779,17.212L17.779,17.212z"/><path fill="#fea919" d="M19.051,43.683c4.072-0.18,8.143-0.36,12.215-0.54c7.066-0.313,7.094-10.728,0-11	c-4.593-0.176-8.661-1.405-12.635-3.704c-0.438,3.351-0.876,6.702-1.314,10.053c1.962-0.735,3.436-1.132,5.554-1.214	c5.898-0.226,7.833-9.623,1.462-10.804c-2.361-0.437-4.722-0.875-7.082-1.312c-0.487,3.601-0.975,7.202-1.462,10.804	c12.327,0.879,24.668,1.23,37.025,1.053c0-3.667,0-7.333,0-11c-11.74,0.199-23.474,0.341-35.194-0.495c0,3.667,0,7.333,0,11	c14.601-0.634,29.212-0.865,43.824-1.129c3.537-0.064,7.263,0.188,10.777-0.212c0.658-0.015,1.315-0.03,1.973-0.045	c-1.44-0.929-1.9-0.513-1.379,1.247c-0.377,1.176,0.082,3.074,0.144,4.276c0.347,6.64,1.102,13.225,0.388,19.868	c-0.755,7.03,10.251,6.976,11,0c0.866-8.061-0.4-16.08-0.533-24.144c-0.133-8.113-3.167-12.304-11.594-12.203	c-18.198,0.218-36.419,0.551-54.601,1.341c-7.119,0.309-7.034,10.499,0,11c11.72,0.835,23.455,0.693,35.194,0.495	c7.07-0.12,7.094-11.102,0-11c-12.357,0.177-24.698-0.174-37.025-1.053c-6.119-0.436-7.58,9.67-1.462,10.804	c2.361,0.437,4.722,0.875,7.082,1.312c0.487-3.601,0.975-7.202,1.462-10.804c-2.967,0.114-5.697,0.565-8.478,1.606	c-4.256,1.594-5.677,7.528-1.314,10.053c5.653,3.271,11.665,4.956,18.187,5.206c0-3.667,0-7.333,0-11	c-4.072,0.18-8.143,0.36-12.215,0.54C12,32.995,11.962,43.996,19.051,43.683L19.051,43.683z"/><path fill="#fea919" d="M15.947,35.705c7.078,0,7.09-11,0-11C8.869,24.705,8.857,35.705,15.947,35.705L15.947,35.705z"/><path fill="#fea919" d="M16.294,36.224c9.171,0.303,18.344,0.54,27.516,0.842c7.157,0.236,6.958-10.408,0-11	c-4.429-0.377-8.862-0.682-13.303-0.87c-4.001-0.17-8.706-0.87-12.628,0.015c-7.804,1.76-8.016,9.516-8.107,16.007	c-0.117,8.409-0.022,16.986,0.737,25.366c0.616,6.799,4.957,10.223,11.612,10.517c7.898,0.349,15.964-0.274,23.875-0.329	c8.764-0.061,17.697,0.311,26.44-0.347c6.805-0.512,12.095-4.54,12.524-11.663c0.515-8.565-1.273-17.501-1.652-26.067	c-0.312-7.051-11.313-7.089-11,0c0.249,5.623,0.768,11.22,1.184,16.832c0.124,1.677,1.421,7.858,0.468,9.235	c-0.906,1.308-4.896,0.747-6.204,0.774c-11.671,0.238-23.346,0.193-35.018,0.365c-2.817,0.041-5.633,0.116-8.45,0.169	c-2.66,0.05-3.045,0.657-2.924-1.966c0.262-5.648-0.536-11.496-0.596-17.163c-0.033-3.161-0.05-6.337,0.089-9.495	c0.034-0.78,0.456-1.801,0.131-1.498c0.589-0.549,4.011,0.068,4.761,0.087c6.031,0.158,12.05,0.521,18.061,1.032	c0-3.667,0-7.333,0-11c-9.171-0.303-18.344-0.54-27.516-0.842C9.213,24.991,9.222,35.991,16.294,36.224L16.294,36.224z"/><path fill="#fea919" d="M20.268,36.476c-3.983,6.843-5.897,14.364-5.515,22.286c0.22,4.574,5.96,7.494,9.389,3.889	c3.467-3.644,5.842-7.813,7.064-12.703c1.585-6.345-6.485-9.122-10.053-4.238c-4.148,5.678-13.644,24.412,1.074,23.418	c5.753-0.388,11.442-2.82,17.286-3.362c6.753-0.627,13.546-0.611,20.321-0.599c0-3.667,0-7.333,0-11	c-10.5,1.189-20.935,2.791-31.296,4.868C22.425,60.26,23.857,69.978,30,69.838c7.007-0.16,14.013-0.32,21.02-0.48	c6.121-0.14,13.164,0.658,19.144-0.753c14.611-3.446,4.546-20.141,8.651-29.522c1.25-2.858,0.594-7.481-3.287-8.079	c-20.45-3.155-51.73-0.275-60.387,22.069c-1.714,4.423,4.269,8.809,8.079,6.211c6.33-4.315,12.661-8.631,18.991-12.946	c-2.222-2.879-4.443-5.759-6.665-8.638c-3.794,4.781-7.588,9.561-11.381,14.342c-2.692,3.392-1.682,7.618,2.427,9.193	c5.547,2.125,11.112-3.572,15.329-6.439c5.831-3.964,11.661-7.928,17.492-11.892c-2.222-2.879-4.443-5.759-6.665-8.638	c-4.935,5.811-9.87,11.621-14.805,17.432c-3.764,4.432,1.16,12.416,6.665,8.638c6.97-4.784,13.939-9.568,20.909-14.351	c-2.508-2.508-5.017-5.017-7.525-7.525c-3.127,4.874-6.254,9.747-9.381,14.621c-3.591,5.597,4.099,10.406,8.638,6.665	c3.879-3.196,7.757-6.393,11.636-9.589c-3.064-1.784-6.128-3.567-9.193-5.351c-1.17,4.306-1.893,8.647-2.325,13.087	c-0.547,5.624,7.668,7.216,10.249,2.776c2.569-4.419,3.898-8.927,4.524-13.971c-3.667,0-7.333,0-11,0	c0.25,3.267,0.338,6.506,0.267,9.781c-0.142,6.511,8.763,7.052,10.804,1.462c0.456-1.249,0.911-2.497,1.367-3.746	c2.431-6.66-8.196-9.532-10.607-2.924c-0.456,1.249-0.911,2.497-1.367,3.746c3.601,0.487,7.202,0.975,10.804,1.462	c0.071-3.275-0.017-6.515-0.267-9.781c-0.551-7.194-10.138-6.937-11,0c-0.381,3.065-1.486,5.775-3.023,8.419	c3.416,0.925,6.833,1.851,10.249,2.776c0.336-3.461,1.02-6.808,1.932-10.162c1.537-5.659-5.15-8.683-9.193-5.351	c-3.879,3.196-7.757,6.393-11.636,9.589c2.879,2.222,5.759,4.443,8.638,6.665c3.127-4.874,6.254-9.747,9.381-14.621	c2.894-4.51-2.968-10.653-7.525-7.525c-6.97,4.784-13.939,9.568-20.909,14.351c2.222,2.879,4.443,5.759,6.665,8.638	c4.935-5.811,9.87-11.621,14.805-17.432c3.769-4.438-1.146-12.39-6.665-8.638c-4.505,3.063-9.011,6.126-13.516,9.189	c-2.12,1.441-4.24,2.883-6.361,4.324c-1.06,0.721-2.12,1.441-3.18,2.162c-0.53,0.36-1.06,0.721-1.59,1.081	c-1.153,0.589-1.052,0.744,0.303,0.465c0.809,3.064,1.618,6.128,2.427,9.193c3.794-4.781,7.588-9.561,11.381-14.342	c3.536-4.456-1.036-12.475-6.665-8.638C30.33,41.155,24,45.47,17.669,49.785c2.693,2.07,5.386,4.141,8.079,6.211	c3.128-8.073,12.362-11.09,20.03-13.069c8.741-2.256,17.902-2.694,26.825-1.317c-1.096-2.693-2.191-5.386-3.287-8.079	c-1.94,4.434-3.051,8.914-2.841,13.785c0.106,2.464,0.584,4.83,0.996,7.249c0.603,3.542-0.381,3.426-4.031,3.509	C52.294,58.328,41.147,58.583,30,58.838c0.487,3.601,0.975,7.202,1.462,10.804c9.398-1.885,18.846-3.397,28.371-4.476	c6.855-0.776,7.26-10.988,0-11c-8.816-0.015-17.609,0.061-26.353,1.325c-2.121,0.307-4.231,0.662-6.322,1.134	c-1.195,0.268-2.382,0.569-3.561,0.904c-2.37,0.106-2.447,0.989-0.231,2.647c1.094,2.711,1.784,2.864,2.07,0.46	c0.407-1.203,0.908-2.365,1.501-3.488c1.046-2.087,2.339-4.006,3.713-5.886c-3.351-1.413-6.702-2.825-10.053-4.238	c-0.771,3.085-2.028,5.53-4.235,7.849c3.13,1.296,6.259,2.593,9.389,3.889c-0.292-6.058,0.955-11.48,4.013-16.734	C33.334,35.898,23.831,30.354,20.268,36.476L20.268,36.476z"/><path d="M13.432,40.179c0,0,0.053,2.901,0.148,8.066c0.055,2.607,0.123,5.785,0.201,9.457c0.055,1.842,0.115,3.811,0.215,5.894	c0.129,2.082,0.157,4.299,0.628,6.481c0.448,2.177,1.333,4.405,3.038,5.962c1.706,1.548,4.137,2.304,6.728,2.42	c5.351,0.165,11.236,0.012,17.35-0.07c6.132-0.107,12.57-0.252,19.239-0.435c3.333-0.097,6.728-0.197,10.158-0.343	c0.854-0.043,1.712-0.086,2.572-0.129l1.281-0.081l1.211-0.127c1.597-0.217,3.148-0.693,4.532-1.442	c0.912-0.477,1.731-1.089,2.421-1.809c0.695-0.714,1.292-1.52,1.709-2.424c0.429-0.894,0.751-1.849,0.901-2.851	c0.181-1.006,0.214-1.985,0.185-3.096c-0.102-4.407-0.334-8.796-0.507-13.048c-0.178-4.262-0.363-8.404-0.436-12.458	c-0.032-2.053,0.054-3.986-0.244-5.741c-0.287-1.742-1.022-3.276-2.242-4.343c-1.184-1.068-2.779-1.539-4.458-1.688	c-1.674-0.149-3.449-0.06-5.158-0.074c-3.411,0.006-6.661,0.012-9.729,0.018c-6.143-0.009-11.555-0.017-16.066-0.023	c-0.114-0.034-0.228-0.067-0.337-0.099c-0.109-0.032-0.232-0.042-0.24-0.157c-0.086-0.201-0.202-0.407-0.309-0.587	c-1.681-4.319-4.706-6.531-6.908-7.375c-0.28-0.103-0.543-0.2-0.79-0.291c-0.252-0.072-0.493-0.119-0.714-0.174	c-0.221-0.052-0.425-0.1-0.611-0.144c-0.189-0.022-0.361-0.041-0.514-0.058c-0.612-0.067-0.927-0.102-0.927-0.102	s0.317,0.016,0.933,0.048c0.155,0.009,0.328,0.019,0.52,0.03c0.19,0.034,0.397,0.071,0.623,0.111	c0.226,0.043,0.473,0.078,0.733,0.137c0.255,0.079,0.528,0.163,0.818,0.252c1.146,0.387,2.527,1.07,3.871,2.258	c0.683,0.579,1.331,1.302,1.952,2.125c0.312,0.412,0.604,0.859,0.887,1.332c0.131,0.243,0.282,0.479,0.403,0.738	c0.124,0.237,0.272,0.56,0.339,0.726c0.05,0.117,0.106,0.256,0.142,0.399c-0.008,0.094,0.083,0.069,0.16,0.065	c0.077-0.004,0.157-0.008,0.237-0.012c4.427-0.178,9.738-0.392,15.766-0.634c3.066-0.112,6.313-0.231,9.721-0.355	c1.708-0.038,3.441-0.19,5.345-0.082c1.867,0.103,4.009,0.613,5.673,2.034c1.663,1.359,2.698,3.452,3.078,5.524	c0.397,2.08,0.334,4.128,0.413,6.088c0.155,3.984,0.414,8.133,0.654,12.385c0.235,4.262,0.516,8.606,0.656,13.125	c0.101,2.291-0.187,4.922-1.325,7.214c-1.098,2.319-3.027,4.283-5.3,5.473c-1.733,0.937-3.609,1.495-5.476,1.744l-1.395,0.143	l-1.324,0.078c-0.875,0.039-1.747,0.079-2.616,0.118c-3.464,0.127-6.866,0.198-10.211,0.257c-6.688,0.106-13.137,0.143-19.282,0.119	c-6.161-0.051-11.951-0.044-17.506-0.382c-2.826-0.208-5.714-1.157-7.726-3.12c-2.008-1.974-2.876-4.564-3.271-6.904	c-0.415-2.386-0.346-4.621-0.392-6.71c-0.015-2.098,0.01-4.073,0.037-5.92c0.062-3.692,0.159-6.87,0.246-9.466	C13.328,43.079,13.432,40.179,13.432,40.179z"/></svg>